<?xml version="1.0" encoding="utf-8" ?>
<svg baseProfile="tiny" height="100%" version="1.2" width="100%" xmlns="http://www.w3.org/2000/svg" xmlns:ev="http://www.w3.org/2001/xml-events" xmlns:xlink="http://www.w3.org/1999/xlink"><defs /><text x="0.0" y="0.0">U$1</text><text x="50.0" y="50.0">U$2</text><text x="100.0" y="100.0">U$3</text><text x="150.0" y="150.0">U$4</text><text x="200.0" y="200.0">U$5</text><polyline fill="none" points="0.0,0.0 50.0,50.0 100.0,100.0 150.0,150.0 200.0,200.0" stroke="black" /><polyline fill="none" points="0.0,0.0 50.0,50.0 100.0,100.0 150.0,150.0 200.0,200.0" stroke="black" /><polyline fill="none" points="0.0,0.0 50.0,50.0" stroke="black" /><polyline fill="none" points="0.0,0.0 50.0,50.0" stroke="black" /><polyline fill="none" points="0.0,0.0 100.0,100.0" stroke="black" /><polyline fill="none" points="0.0,0.0 100.0,100.0" stroke="black" /><polyline fill="none" points="0.0,0.0 150.0,150.0" stroke="black" /><polyline fill="none" points="0.0,0.0 150.0,150.0" stroke="black" /><polyline fill="none" points="0.0,0.0 200.0,200.0" stroke="black" /><polyline fill="none" points="0.0,0.0 200.0,200.0" stroke="black" /></svg>